<svg width="1287" height="359" viewBox="0 0 1287 359" fill="none" xmlns="http://www.w3.org/2000/svg">
<path d="M156.332 0.792419C135.665 3.45909 115.132 9.99243 95.1318 20.2591C43.1318 46.7924 8.59845 97.7258 0.99845 159.059C-2.06822 183.592 2.06512 215.192 11.5318 238.926C36.4651 301.326 83.9318 341.592 146.998 353.859C161.932 356.792 193.665 357.192 207.665 354.659C263.532 344.659 312.998 307.326 339.265 255.459C351.798 230.526 357.665 203.059 356.598 173.192C355.132 130.259 339.932 91.4591 311.532 58.9258C286.865 30.5257 246.865 8.52573 207.798 1.9924C196.198 -0.00759888 167.265 -0.674247 156.332 0.792419ZM203.665 24.5258C225.798 28.1258 250.598 38.1257 269.665 50.9258C296.332 68.9258 319.265 100.259 328.065 130.659C333.132 147.992 333.798 153.859 330.865 158.126C327.665 163.059 316.865 174.526 315.532 174.526C314.865 174.526 314.332 170.126 314.332 164.792C314.332 159.592 313.665 152.926 312.998 150.259C311.398 144.526 306.198 137.859 302.465 136.792C300.198 136.259 299.798 137.459 298.598 149.059C296.865 163.992 292.865 177.992 287.932 186.392L284.465 192.392L282.198 181.059C272.865 134.259 237.798 87.5924 202.732 75.7257C190.732 71.5924 173.265 71.5924 161.932 75.5924C140.065 83.4591 116.465 105.326 100.998 131.859C93.7985 144.126 85.7984 164.526 82.7318 178.126C81.3984 184.259 79.9318 189.192 79.3985 189.192C77.9318 189.192 66.1985 163.992 60.9985 149.859C55.2651 134.392 54.4651 133.459 49.6651 137.459C46.4651 140.259 45.9318 141.859 45.3985 149.992C45.1318 155.192 45.6651 163.459 46.7318 168.792C47.7985 174.126 48.3318 178.526 47.9318 178.526C47.6651 178.526 42.0651 175.459 35.5318 171.726C21.9318 163.859 22.3318 164.792 25.6651 146.392C34.4651 98.9258 63.6651 61.1924 108.332 39.1924C138.198 24.5257 171.665 19.3258 203.665 24.5258ZM193.665 92.5258C205.665 95.7258 214.065 100.926 225.665 112.526C246.065 132.926 261.532 161.859 266.198 188.392C268.865 203.459 269.265 202.792 254.732 210.259C232.998 221.459 211.265 229.192 202.465 229.059C196.332 229.059 196.465 228.926 214.732 220.259C231.798 211.992 233.132 211.192 232.732 207.992C232.065 202.659 226.465 202.926 205.398 209.726C195.132 213.059 180.598 217.326 172.998 219.192L159.265 222.659L145.932 219.859C132.198 216.926 109.265 209.459 100.865 205.059C96.0651 202.659 95.9318 202.392 96.5984 196.926C100.865 163.726 120.065 127.726 144.732 107.192C162.198 92.6591 176.998 88.2591 193.665 92.5258ZM329.398 196.126C322.332 203.459 308.598 213.459 292.198 223.326C277.398 232.126 272.332 233.592 250.998 235.192L240.332 235.992L258.998 226.792C286.998 213.059 310.332 197.992 328.332 182.126L333.665 177.459L334.065 184.259C334.465 190.392 334.065 191.326 329.398 196.126ZM42.4651 197.326C67.6651 211.859 91.3984 222.392 119.665 231.859C143.265 239.726 172.998 246.926 188.998 248.659C202.065 249.992 202.732 251.326 191.532 253.326C172.198 256.926 112.065 254.259 92.3318 249.059C66.7318 242.259 33.9318 218.259 25.7985 200.526C23.7985 196.126 21.7985 186.526 22.8651 186.526C23.2651 186.526 32.0651 191.459 42.4651 197.326ZM322.598 236.392C312.998 261.192 298.998 277.326 282.065 283.326C268.332 288.126 224.998 293.859 224.998 290.792C224.998 290.259 232.065 285.992 240.732 281.326C277.132 261.326 301.798 245.326 321.665 228.792C323.932 226.926 325.798 225.592 326.065 225.859C326.332 226.126 324.732 230.792 322.598 236.392ZM71.6651 260.259C88.1985 269.726 118.065 284.392 124.065 285.859C126.065 286.392 127.665 287.326 127.665 287.992C127.665 291.059 101.265 287.459 81.9318 281.859C55.6651 274.259 46.7318 266.392 36.5985 242.259L34.5984 237.459L45.3985 244.392C51.3985 248.259 63.2651 255.326 71.6651 260.259ZM246.332 261.859C234.998 269.059 206.598 283.326 197.665 286.259C190.332 288.659 188.865 288.792 178.998 287.192C173.132 286.259 164.465 284.392 159.798 283.192C149.132 280.392 127.265 271.859 128.332 270.792C128.732 270.392 143.665 269.592 161.398 269.059C195.265 267.992 214.065 265.859 236.332 260.659C254.198 256.392 254.865 256.526 246.332 261.859ZM96.9985 300.392C121.132 305.192 140.865 306.926 156.865 305.992C171.398 305.192 196.198 307.459 192.732 309.326C188.865 311.459 159.798 318.526 148.332 319.992C133.132 321.992 117.132 320.792 107.265 317.192C99.5318 314.259 81.5318 303.059 78.3318 299.192C76.0651 296.526 76.8651 296.526 96.9985 300.392ZM267.665 305.192C255.665 314.392 235.398 323.726 216.065 328.792C205.265 331.592 199.265 332.259 181.665 332.659C167.932 333.059 161.265 332.792 162.998 331.992C164.465 331.326 173.398 328.526 182.998 325.859C192.465 323.192 208.065 317.992 217.398 314.259C233.265 307.992 252.865 303.459 267.665 302.792L270.998 302.526L267.665 305.192Z" fill="#6D1D7D"/>
<path d="M1022.87 103.726C1018.2 105.726 1014.33 111.726 1014.33 117.059C1014.47 124.793 1020.6 130.526 1029 130.526C1035.27 130.526 1042.33 123.059 1042.33 116.659C1042.33 107.459 1031.27 100.126 1022.87 103.726Z" fill="#EAEAE0"/>
<path d="M427.665 169.192V233.192H440.332H452.998L453.265 192.526L453.665 151.859L480.332 192.392L506.998 233.059H519.398L531.665 233.192V169.192V105.192H518.998H506.332V147.326C506.332 178.526 505.932 189.326 504.732 188.926C503.932 188.659 491.532 169.859 477.132 147.059L450.865 105.859L439.265 105.459L427.665 105.059V169.192Z" fill="#EAEAE0"/>
<path d="M828.999 108.392C826.865 114.126 819.532 134.792 804.732 177.192C796.732 200.259 788.999 222.392 787.665 226.126L785.132 233.192H798.065H811.132L815.532 220.526L819.932 207.859H844.332H868.732L873.132 220.526L877.532 233.192H890.732C898.865 233.192 903.532 232.659 902.999 231.859C902.332 230.659 860.332 112.926 858.732 107.459C858.065 105.459 856.199 105.192 844.199 105.192C830.732 105.192 830.199 105.326 828.999 108.392ZM860.999 185.459C860.999 186.126 853.399 186.526 844.199 186.526C827.399 186.526 827.399 186.526 827.932 183.459C828.599 180.659 841.532 138.659 843.132 134.526C843.665 132.926 860.999 182.126 860.999 185.459Z" fill="#EAEAE0"/>
<path d="M750.332 118.126C747.798 118.393 743.132 118.926 740.065 119.326L734.332 119.993V131.326V142.526H726.998H719.665V151.193V159.859H726.998H734.332V187.459C734.332 219.459 735.398 223.726 744.465 229.326C748.865 231.993 751.798 232.526 763.265 232.926L776.998 233.459V223.993V214.526H771.532C766.065 214.526 761.132 212.659 759.398 209.993C758.865 209.193 758.332 197.593 758.332 184.126V159.859H768.998H779.665V151.193V142.526H768.998H758.332V129.859C758.332 120.526 757.932 117.193 756.732 117.459C755.798 117.459 752.865 117.859 750.332 118.126Z" fill="#EAEAE0"/>
<path d="M668.332 139.859C644.332 143.192 633.399 166.659 647.932 183.326C652.999 189.059 658.332 191.859 673.132 196.392C685.399 199.992 688.999 202.792 688.999 208.126C688.999 219.592 666.865 219.992 661.399 208.659C658.732 203.059 657.665 202.926 646.599 206.659L638.332 209.459L640.465 214.259C643.799 222.259 648.599 227.459 655.932 231.059C684.199 244.792 718.065 225.459 711.532 199.326C708.599 187.326 699.665 180.392 681.532 175.859C676.065 174.526 670.065 172.392 668.199 171.326C658.999 165.192 670.065 153.326 681.665 157.192C685.932 158.659 694.332 166.526 694.332 169.192C694.332 169.859 696.332 169.592 698.732 168.659C700.999 167.592 705.265 165.859 708.065 164.659L713.132 162.659L710.999 158.526C703.532 143.992 687.799 137.192 668.332 139.859Z" fill="#EAEAE0"/>
<path d="M573.132 142.126C564.465 145.193 554.065 155.993 550.332 165.859C545.932 177.326 545.799 198.526 550.065 209.459C553.532 217.993 560.999 226.526 568.732 230.393C580.199 236.259 600.199 236.393 611.399 230.659C618.199 227.193 627.665 218.926 627.665 216.526C627.665 215.459 623.932 212.659 619.265 210.259L610.865 205.726L606.465 210.126C601.265 215.193 593.265 217.726 586.732 216.526C580.599 215.459 573.799 209.059 571.932 202.793C568.865 192.526 566.999 193.193 599.665 193.193H628.999V186.526C628.999 165.993 619.932 149.326 604.999 142.659C597.665 139.326 581.932 139.059 573.132 142.126ZM600.465 162.659C603.399 165.326 606.332 172.526 606.332 176.793C606.332 178.126 601.799 178.526 588.332 178.526C568.732 178.526 569.399 178.793 571.665 170.393C574.999 158.259 591.265 153.993 600.465 162.659Z" fill="#EAEAE0"/>
<path d="M947.398 143.726C944.065 145.859 940.865 148.259 940.465 149.059C938.732 151.859 936.998 150.526 936.998 146.126V141.859L926.732 142.126L916.332 142.259L915.932 187.726L915.665 233.192H927.665H939.665V204.126C939.665 188.259 940.332 172.926 940.998 170.259C943.532 161.326 953.532 156.659 963.798 159.726C972.998 162.526 973.665 165.059 974.065 201.459L974.598 233.192H985.798H997.132L996.732 196.126C996.332 160.392 996.198 159.059 993.265 153.859C987.665 143.992 978.732 139.859 962.998 139.859C954.865 139.859 952.732 140.392 947.398 143.726Z" fill="#EAEAE0"/>
<path d="M1093 141.326C1091.27 142.126 1087.8 144.126 1085.4 145.992L1081 149.326V145.592V141.859L1069.4 142.126L1057.67 142.259L1057.27 187.726L1057 233.192H1069.67H1082.33L1082.47 203.459C1082.47 170.259 1083.27 166.259 1090.2 161.592C1097.93 156.392 1107.27 158.259 1111.4 165.726C1113.27 169.192 1113.8 174.926 1114.07 201.459L1114.6 233.192H1126.47H1138.33V201.859C1138.33 166.792 1138.73 164.526 1146.87 160.659C1152.47 157.992 1156.07 157.992 1160.87 160.392C1167.13 163.726 1167.67 166.792 1167.67 201.192V233.192H1179.8H1191.8L1191.4 196.792C1191 166.792 1190.6 159.726 1188.87 155.726C1184.07 145.192 1173.67 139.859 1158.33 139.859C1150.87 139.859 1148.6 140.526 1143.53 143.592C1140.33 145.726 1136.47 148.792 1135.13 150.392L1132.6 153.192L1130.2 149.326C1126.47 143.192 1117.8 139.859 1106.2 139.992C1100.73 139.992 1094.87 140.659 1093 141.326Z" fill="#EAEAE0"/>
<path d="M1234.33 141.059C1217 146.659 1206.87 161.326 1205.4 182.792C1204.07 201.592 1208.73 215.992 1219.13 225.192C1231.8 236.259 1253.27 238.526 1269.8 230.392C1275.27 227.859 1286.33 217.992 1286.33 215.859C1286.33 215.326 1282.47 212.792 1277.8 210.392L1269.27 205.992L1264.6 210.126C1256.2 217.459 1245.4 218.926 1237.27 213.592C1233.53 211.326 1229.13 202.126 1229 196.792V193.192H1257.67H1286.33V183.992C1286.33 165.859 1279.27 151.726 1266.6 144.259C1261.53 141.192 1258.73 140.659 1249.13 140.259C1242.87 140.126 1236.2 140.392 1234.33 141.059ZM1256.07 160.792C1259.8 162.659 1264.87 171.459 1265 176.126C1265 178.259 1263.27 178.526 1247 178.526H1229V175.192C1229 171.992 1230.87 167.592 1234.07 162.792C1235.8 160.126 1245.13 157.326 1249 158.126C1250.87 158.526 1254.07 159.726 1256.07 160.792Z" fill="#EAEAE0"/>
<path d="M1017 187.192V233.192H1028.33H1039.67V187.192V141.192H1028.33H1017V187.192Z" fill="#EAEAE0"/>
<path d="M1025 284.526V287.859H1008.33H991.665V297.859V307.859H995.665C999.532 307.859 999.665 307.726 999.665 301.192V294.526H1027.67H1055.67V301.192C1055.67 307.726 1055.8 307.859 1059.67 307.859H1063.67V297.859V287.859H1048.33H1033V284.526C1033 281.726 1032.33 281.192 1029 281.192C1025.67 281.192 1025 281.726 1025 284.526Z" fill="#6D1D7D"/>
<path d="M645.799 289.193L644.999 294.526H635.665H626.332V298.659V302.793L635.265 302.393L644.332 301.859L643.932 307.859C643.665 311.593 642.732 314.393 641.399 315.193C631.932 321.059 622.332 333.593 622.332 340.126C622.332 344.526 627.132 351.726 630.599 352.526C632.999 353.193 646.732 352.793 654.732 351.993C655.265 351.859 655.665 350.793 655.665 349.459C655.665 348.126 657.399 345.326 659.532 343.326C663.132 339.859 668.599 330.259 671.532 322.126C673.265 317.593 674.865 317.593 679.799 322.393C687.665 330.259 683.399 343.726 671.665 347.993C665.799 350.259 664.465 353.059 667.665 356.393C669.265 357.993 676.865 356.393 682.065 353.193C697.132 343.993 695.132 318.926 678.865 312.926C674.732 311.459 674.199 310.793 674.599 307.593C674.999 305.193 674.599 303.859 673.532 303.859C672.599 303.859 670.999 303.459 669.799 303.059C668.199 302.393 667.665 303.059 667.665 305.726C667.665 308.659 667.132 309.193 663.799 309.193C661.665 309.193 658.065 309.593 655.799 309.993C651.532 310.926 651.532 310.793 651.932 306.393L652.332 301.859L668.732 301.459L684.999 301.059V297.193V293.193H669.132H653.132L653.932 288.526C654.599 284.126 654.465 283.859 650.732 283.859C646.999 283.859 646.599 284.393 645.799 289.193ZM664.332 320.126C662.999 324.393 658.865 330.926 655.932 333.726C653.399 335.859 653.265 335.859 652.465 332.926C652.065 331.193 651.665 327.593 651.665 324.926C651.665 319.193 653.932 317.326 660.732 317.193C664.732 317.193 665.132 317.459 664.332 320.126ZM645.532 334.126C646.332 340.126 646.065 341.193 643.799 342.393C640.332 344.393 635.265 344.259 633.265 342.259C630.199 339.193 631.532 334.393 637.132 328.793C643.399 322.526 644.065 322.926 645.532 334.126Z" fill="#6D1D7D"/>
<path d="M732.332 289.726L731.398 295.859H723.532C715.665 295.859 715.665 295.859 715.665 299.859C715.665 303.726 715.798 303.859 722.332 303.859C726.732 303.859 728.998 304.392 728.998 305.459C728.998 308.392 725.398 318.926 720.998 329.726C716.598 340.126 716.865 343.859 721.532 342.126C724.065 341.192 734.998 318.659 737.132 310.126L738.598 303.859H747.132H755.665V299.859C755.665 295.859 755.665 295.859 748.198 295.859H740.598L741.398 290.526C741.798 286.926 741.532 285.192 740.598 285.192C739.665 285.192 737.665 284.792 736.065 284.392C733.532 283.726 733.132 284.259 732.332 289.726Z" fill="#6D1D7D"/>
<path d="M828.465 288.126C828.065 289.726 827.532 292.392 827.399 293.859C826.999 296.126 825.799 296.526 817.932 296.926C808.999 297.326 808.999 297.326 808.999 301.192C808.999 305.192 808.999 305.192 817.132 305.192H825.265L824.332 310.792C823.399 316.659 816.465 337.992 812.599 346.792L810.332 351.726L814.332 353.726C817.932 355.459 818.465 355.459 819.532 353.459C823.399 346.259 828.332 331.992 831.532 319.192L835.265 304.526L844.732 304.126L854.332 303.726V299.592V295.459L844.999 296.392L835.532 297.326L836.332 293.592C836.865 291.592 837.399 289.059 837.799 288.126C838.065 287.326 837.132 286.526 835.799 286.526C834.332 286.526 832.332 286.126 831.132 285.726C829.799 285.192 828.865 285.992 828.465 288.126Z" fill="#6D1D7D"/>
<path d="M924.065 290.926C905.532 297.859 894.732 320.126 901.798 336.926C908.732 353.726 922.465 353.059 930.865 335.459C934.465 327.859 938.332 311.059 938.332 302.526C938.332 296.526 939.532 295.992 946.865 299.059C956.732 303.192 962.332 317.859 958.465 329.592C956.598 335.192 948.465 342.926 941.932 345.326C937.532 346.792 937.398 347.192 938.598 350.792C940.198 355.326 941.132 355.326 949.665 351.326C957.798 347.592 961.265 343.859 965.132 335.192C973.132 317.192 965.532 297.326 948.065 291.059C941.932 288.926 929.798 288.792 924.065 290.926ZM928.865 309.192C926.732 326.792 920.465 339.859 914.198 339.859C908.598 339.859 905.532 324.659 909.398 315.459C910.465 313.059 912.865 309.192 914.998 306.792C918.998 302.126 927.798 296.792 929.265 298.259C929.798 298.792 929.665 303.726 928.865 309.192Z" fill="#6D1D7D"/>
<path d="M765.399 294.793C761.932 299.326 762.332 299.859 772.865 305.193C778.732 308.126 784.199 310.526 784.865 310.526C785.532 310.526 786.999 309.059 788.199 307.193L790.332 303.859L779.665 298.526C767.932 292.659 767.265 292.393 765.399 294.793Z" fill="#6D1D7D"/>
<path d="M1003.53 300.526C1002.2 306.659 1002.73 307.192 1012.73 307.192C1018.07 307.192 1022.33 307.726 1022.33 308.259C1022.33 309.859 1013.93 313.059 1003.53 315.459C996.332 317.059 994.332 317.992 994.865 319.459C995.265 320.526 995.665 321.992 995.665 322.792C995.665 324.659 1006.47 322.926 1014.73 319.859C1018.87 318.259 1021 317.992 1020.6 318.926C1019.8 321.326 1009.27 326.792 1000.87 329.192C993.932 331.059 993.398 331.459 994.465 334.259C995.532 336.926 996.198 337.192 1000.6 336.392C1006.73 335.326 1017.8 329.992 1022.07 326.126L1025 323.459V326.126C1025 331.192 1014.07 339.192 1001.53 343.192C993.265 345.992 990.465 347.459 990.998 348.792C991.398 349.859 991.665 351.326 991.665 352.126C991.665 355.726 1013 348.392 1021.67 341.726L1027.67 337.192V342.259C1027.67 348.526 1025.8 350.526 1020.07 350.526C1016.07 350.526 1015.67 350.926 1015.67 354.659V358.926L1022.6 357.992C1031.4 356.792 1034.07 355.326 1035.13 351.059C1036.33 346.259 1034.87 329.592 1032.6 323.192C1031.53 320.259 1030.33 315.859 1029.8 313.459C1028.6 306.526 1031.67 308.792 1034.33 316.659C1039.13 330.659 1047.27 342.526 1056.47 349.192L1062.07 353.192L1064.87 349.726L1067.67 346.126L1061.13 341.726C1055.13 337.726 1049 331.326 1049 329.326C1049 328.926 1052.33 326.526 1056.33 324.126C1060.33 321.726 1063.67 319.192 1063.67 318.659C1063.67 318.126 1062.47 316.526 1061 315.192C1058.6 313.059 1058.07 312.926 1056.07 314.792C1053.67 316.792 1045.8 321.192 1044.47 321.192C1043.8 321.192 1038.33 309.592 1038.33 308.392C1038.33 308.126 1041.67 307.859 1045.67 307.859C1052.87 307.859 1053 307.859 1053 303.859V299.859H1028.33C1014.73 299.859 1003.67 300.126 1003.53 300.526Z" fill="#6D1D7D"/>
<path d="M842.332 312.926V316.792L856.732 318.259C876.332 320.392 875.665 320.526 875.665 315.992C875.665 311.592 876.065 311.726 852.065 309.859L842.332 309.192V312.926Z" fill="#6D1D7D"/>
<path d="M762.065 323.059L761.665 331.059L756.332 331.459C745.132 332.526 738.332 337.859 738.332 345.859C738.332 359.326 764.199 361.326 770.332 348.259L772.332 343.859L777.132 347.859C781.932 351.726 782.065 351.726 784.332 349.193C787.532 345.593 786.332 343.459 777.665 337.726L770.332 332.793V323.993V315.193L766.332 315.059C762.465 314.926 762.465 314.926 762.065 323.059ZM762.065 341.993C762.999 348.393 750.599 351.859 747.132 346.126C745.932 344.126 746.199 343.193 748.865 341.059C753.265 337.459 761.532 337.993 762.065 341.993Z" fill="#6D1D7D"/>
<path d="M841.665 333.326C838.465 339.326 839.532 346.393 844.065 349.726C847.265 352.126 850.065 352.526 863.532 352.926L879.265 353.459L878.598 349.326L878.065 345.193H866.065C859.532 345.193 852.998 344.526 851.532 343.859C848.865 342.393 848.198 337.859 850.332 334.526C851.265 333.059 850.732 332.126 848.598 330.926C844.465 328.526 843.932 328.793 841.665 333.326Z" fill="#6D1D7D"/>
</svg>
